<svg width="633" height="43" viewBox="0 0 633 43" fill="none" xmlns="http://www.w3.org/2000/svg">
<path d="M46.1562 23.7375C35.46 25.3308 10.8863 26.475 0 42.6396V23.7375H46.1562Z" fill="#FCA311"/>
<path d="M586.844 18.9021C597.54 17.3088 622.114 16.1645 633 -2.86102e-05L633 18.9021L586.844 18.9021Z" fill="#FCA311"/>
<path d="M586.844 23.7374C597.54 25.3307 622.114 26.475 633 42.6395V23.7374H586.844Z" fill="#FCA311"/>
<path d="M46.1562 18.902C35.46 17.3087 10.8863 16.1645 1.65247e-06 -5.91278e-05L0 18.902L46.1562 18.902Z" fill="#FCA311"/>
<rect width="633" height="4.83542" transform="matrix(-1 0 0 1 633 18.902)" fill="#FCA311"/>
<rect y="18.9021" width="633" height="4.83542" fill="#FCA311"/>
</svg>
