<svg width="1231" height="43" viewBox="0 0 1231 43" fill="none" xmlns="http://www.w3.org/2000/svg">
<path d="M345.156 23.7375C334.46 25.3307 309.886 26.475 299 42.6395V23.7375H345.156Z" fill="#FCA311"/>
<path d="M885.844 18.9021C896.54 17.3088 921.114 16.1645 932 -2.86102e-05L932 18.9021L885.844 18.9021Z" fill="#FCA311"/>
<path d="M885.844 23.7374C896.54 25.3307 921.114 26.475 932 42.6395V23.7374H885.844Z" fill="#FCA311"/>
<path d="M345.156 18.902C334.46 17.3087 309.886 16.1645 299 -5.91278e-05L299 18.902L345.156 18.902Z" fill="#FCA311"/>
<rect width="633" height="4.83542" transform="matrix(-1 0 0 1 932 18.902)" fill="#FCA311"/>
<rect x="299" y="18.9021" width="633" height="4.83542" fill="#FCA311"/>
<rect y="19" width="165" height="4" rx="2" fill="#FCA311"/>
<rect x="1066" y="19" width="165" height="4" rx="2" fill="#FCA311"/>
</svg>
