<svg width="221" height="26" viewBox="0 0 221 26" fill="none" xmlns="http://www.w3.org/2000/svg">
<path d="M3.85797 3.968L1.26597 3.656V2.168H8.75397L11.61 12.488L12.282 15.296L12.858 12.488L15.69 2.168H23.106V3.656L20.49 3.968L22.41 18.296L24.354 18.56V20H16.698V18.56L18.81 18.32L17.754 7.808L17.298 3.416L16.41 7.112L12.93 19.256H10.386L6.83397 7.736L5.60997 3.416L5.24997 7.808L4.33797 18.32L6.76197 18.56V20H0.0899672V18.56L2.10597 18.32L3.85797 3.968ZM28.4724 4.472C27.8964 4.472 27.4404 4.304 27.1044 3.968C26.7684 3.632 26.6004 3.2 26.6004 2.672C26.6004 2.064 26.7924 1.56 27.1764 1.16C27.5604 0.759999 28.0724 0.559999 28.7124 0.559999C29.3524 0.559999 29.8404 0.735999 30.1764 1.088C30.5124 1.424 30.6804 1.848 30.6804 2.36C30.6804 3 30.4884 3.512 30.1044 3.896C29.7204 4.28 29.1844 4.472 28.4964 4.472H28.4724ZM27.2004 8.936L25.4964 8.48V6.872L29.8884 6.344H29.9364L30.6084 6.824V18.368L32.2164 18.56V20H25.5204V18.56L27.2004 18.344V8.936ZM33.7447 13.4C33.7447 12.024 34.0167 10.8 34.5607 9.728C35.1207 8.656 35.9127 7.824 36.9367 7.232C37.9767 6.624 39.1847 6.32 40.5607 6.32C41.2007 6.32 41.7527 6.368 42.2167 6.464C42.6807 6.56 43.2007 6.688 43.7767 6.848L44.4727 7.04L44.3287 11.144H42.2407L41.6407 8.504C41.5447 8.088 41.0727 7.88 40.2247 7.88C39.3287 7.88 38.6247 8.272 38.1127 9.056C37.6167 9.84 37.3607 11.064 37.3447 12.728C37.3447 14.488 37.6487 15.84 38.2567 16.784C38.8647 17.712 39.6727 18.176 40.6807 18.176C41.8967 18.176 43.0167 17.848 44.0407 17.192L44.5927 18.44C44.1767 18.888 43.5367 19.304 42.6727 19.688C41.8247 20.072 40.9047 20.264 39.9127 20.264C37.8647 20.264 36.3207 19.632 35.2807 18.368C34.2567 17.104 33.7447 15.448 33.7447 13.4ZM47.726 2.456L45.998 2.144V0.847999L50.414 0.319999H50.462L51.11 0.775999V12.176L51.038 13.448L55.934 8.312L54.158 8.048V6.68H60.422V8.048L58.478 8.36L55.526 11.192L59.726 18.368L61.046 18.56V20H54.71V18.56L55.934 18.344L53.198 13.28L51.038 15.464L51.086 16.688V18.344L52.598 18.56V20H46.334V18.56L47.726 18.344V2.456ZM67.8838 20.264C65.7718 20.264 64.1958 19.648 63.1558 18.416C62.1318 17.168 61.6198 15.472 61.6198 13.328C61.6198 11.888 61.8838 10.64 62.4118 9.584C62.9558 8.528 63.7158 7.72 64.6918 7.16C65.6678 6.6 66.7958 6.32 68.0758 6.32C69.6758 6.32 70.9078 6.744 71.7718 7.592C72.6358 8.424 73.0838 9.616 73.1158 11.168C73.1158 12.224 73.0518 13.008 72.9238 13.52H65.1238C65.1878 14.976 65.5318 16.112 66.1558 16.928C66.7798 17.728 67.6678 18.128 68.8198 18.128C69.4438 18.128 70.0838 18.024 70.7398 17.816C71.4118 17.608 71.9398 17.36 72.3238 17.072L72.9238 18.392C72.4918 18.856 71.7878 19.288 70.8118 19.688C69.8518 20.072 68.8758 20.264 67.8838 20.264ZM69.7558 12.08C69.7878 11.632 69.8038 11.288 69.8038 11.048C69.8038 8.92 69.0918 7.856 67.6678 7.856C66.8838 7.856 66.2758 8.168 65.8438 8.792C65.4118 9.416 65.1718 10.512 65.1238 12.08H69.7558ZM77.2871 25.976C76.9991 25.976 76.6871 25.952 76.3511 25.904C76.0311 25.856 75.7991 25.8 75.6551 25.736V23.168C75.7671 23.232 75.9911 23.296 76.3271 23.36C76.6631 23.424 76.9671 23.456 77.2391 23.456C78.0391 23.456 78.6951 23.192 79.2071 22.664C79.7351 22.136 80.2231 21.248 80.6711 20H79.3751L74.8631 8.36L73.7831 8.048V6.656H80.3831V8.048L78.6311 8.336L80.7671 14.984L81.6311 17.816L82.3751 14.984L84.3431 8.336L82.8311 8.048V6.656H88.0391V8.048L86.8631 8.336C85.9831 11.024 85.1111 13.616 84.2471 16.112C83.3831 18.608 82.8791 20.008 82.7351 20.312C82.2231 21.656 81.7351 22.728 81.2711 23.528C80.8071 24.328 80.2551 24.936 79.6151 25.352C78.9751 25.768 78.1991 25.976 77.2871 25.976ZM96.5962 3.968L94.7242 3.656V2.168H98.3002C98.8442 2.168 99.5482 2.136 100.412 2.072C100.62 2.056 100.868 2.04 101.156 2.024C101.444 2.008 101.78 2 102.164 2C104.58 2 106.268 2.344 107.228 3.032C108.204 3.704 108.692 4.712 108.692 6.056C108.692 7.24 108.332 8.232 107.612 9.032C106.908 9.816 105.98 10.296 104.828 10.472C106.412 10.456 107.652 10.816 108.548 11.552C109.46 12.288 109.916 13.312 109.916 14.624C109.916 16.288 109.332 17.624 108.164 18.632C106.996 19.64 105.044 20.144 102.308 20.144C101.588 20.144 100.924 20.12 100.316 20.072C100.156 20.072 99.8842 20.056 99.5002 20.024C99.1162 20.008 98.7242 20 98.3242 20H94.7002V18.56L96.5962 18.32V3.968ZM100.076 9.944C100.252 9.96 100.612 9.968 101.156 9.968H102.284C103.26 9.968 103.988 9.664 104.468 9.056C104.948 8.448 105.188 7.592 105.188 6.488C105.188 5.432 104.94 4.664 104.444 4.184C103.948 3.704 103.124 3.464 101.972 3.464C101.668 3.464 101.036 3.496 100.076 3.56V9.944ZM100.076 18.416C100.444 18.56 101.148 18.632 102.188 18.632C103.548 18.632 104.532 18.312 105.14 17.672C105.748 17.032 106.052 16.104 106.052 14.888C106.052 13.72 105.772 12.888 105.212 12.392C104.668 11.88 103.796 11.624 102.596 11.624C101.252 11.624 100.412 11.64 100.076 11.672V18.416ZM117.934 20.264C115.822 20.264 114.246 19.648 113.206 18.416C112.182 17.168 111.67 15.472 111.67 13.328C111.67 11.888 111.934 10.64 112.462 9.584C113.006 8.528 113.766 7.72 114.742 7.16C115.718 6.6 116.846 6.32 118.126 6.32C119.726 6.32 120.958 6.744 121.822 7.592C122.686 8.424 123.134 9.616 123.166 11.168C123.166 12.224 123.102 13.008 122.974 13.52H115.174C115.238 14.976 115.582 16.112 116.206 16.928C116.83 17.728 117.718 18.128 118.87 18.128C119.494 18.128 120.134 18.024 120.79 17.816C121.462 17.608 121.99 17.36 122.374 17.072L122.974 18.392C122.542 18.856 121.838 19.288 120.862 19.688C119.902 20.072 118.926 20.264 117.934 20.264ZM119.806 12.08C119.838 11.632 119.854 11.288 119.854 11.048C119.854 8.92 119.142 7.856 117.718 7.856C116.934 7.856 116.326 8.168 115.894 8.792C115.462 9.416 115.222 10.512 115.174 12.08H119.806ZM136.025 20.24C135.497 20.24 135.113 20.128 134.873 19.904C134.633 19.68 134.513 19.344 134.513 18.896V18.248C134.081 18.776 133.473 19.248 132.689 19.664C131.905 20.064 131.121 20.264 130.337 20.264C128.801 20.264 127.705 19.872 127.049 19.088C126.393 18.288 126.065 16.976 126.065 15.152V8.384L124.865 8.048V6.68L128.945 6.368H128.969L129.449 6.704V15.152C129.449 16.32 129.593 17.136 129.881 17.6C130.169 18.064 130.705 18.296 131.489 18.296C132.433 18.296 133.313 17.928 134.129 17.192V8.384L132.521 8.024V6.68L136.865 6.368H136.913L137.489 6.704V18.512H138.833L138.809 19.88C138.745 19.896 138.449 19.96 137.921 20.072C137.393 20.184 136.761 20.24 136.025 20.24ZM140.65 18.584L142.234 18.392V8.936L140.698 8.504V6.848L144.418 6.344H144.49L145.09 6.824V7.352L145.018 9.296H145.09C145.202 8.976 145.466 8.584 145.882 8.12C146.298 7.64 146.818 7.224 147.442 6.872C148.082 6.504 148.77 6.32 149.506 6.32C149.858 6.32 150.162 6.368 150.418 6.464V10.064C149.938 9.728 149.354 9.56 148.666 9.56C147.498 9.56 146.482 9.872 145.618 10.496V18.368L148.402 18.584V20H140.65V18.584ZM154.73 18.032C154.858 18.224 155.146 18.408 155.594 18.584C156.058 18.744 156.522 18.824 156.986 18.824C157.738 18.824 158.298 18.672 158.666 18.368C159.05 18.048 159.242 17.632 159.242 17.12C159.242 16.592 159.01 16.168 158.546 15.848C158.082 15.512 157.298 15.104 156.194 14.624L155.522 14.336C154.418 13.872 153.594 13.312 153.05 12.656C152.506 12 152.234 11.152 152.234 10.112C152.234 9.392 152.45 8.752 152.882 8.192C153.314 7.616 153.922 7.168 154.706 6.848C155.49 6.528 156.394 6.368 157.418 6.368C158.17 6.368 158.81 6.416 159.338 6.512C159.882 6.608 160.45 6.736 161.042 6.896C161.362 7.008 161.602 7.072 161.762 7.088V10.232H159.866L159.314 8.408C159.218 8.248 159.002 8.104 158.666 7.976C158.33 7.848 157.946 7.784 157.514 7.784C156.858 7.784 156.33 7.928 155.93 8.216C155.546 8.488 155.354 8.872 155.354 9.368C155.354 9.816 155.49 10.192 155.762 10.496C156.034 10.784 156.33 11.008 156.65 11.168C156.97 11.328 157.562 11.592 158.426 11.96C159.29 12.328 160.002 12.68 160.562 13.016C161.138 13.352 161.61 13.792 161.978 14.336C162.362 14.864 162.554 15.512 162.554 16.28C162.554 17.464 162.09 18.424 161.162 19.16C160.234 19.896 158.898 20.264 157.154 20.264C156.338 20.264 155.602 20.192 154.946 20.048C154.306 19.904 153.562 19.712 152.714 19.472L152.186 19.304V16.136H154.178L154.73 18.032ZM165.736 2.456L164.008 2.144V0.847999L168.424 0.319999H168.472L169.12 0.775999V12.176L169.048 13.448L173.944 8.312L172.168 8.048V6.68H178.432V8.048L176.488 8.36L173.536 11.192L177.736 18.368L179.056 18.56V20H172.72V18.56L173.944 18.344L171.208 13.28L169.048 15.464L169.096 16.688V18.344L170.608 18.56V20H164.344V18.56L165.736 18.344V2.456ZM185.893 20.264C183.781 20.264 182.205 19.648 181.165 18.416C180.141 17.168 179.629 15.472 179.629 13.328C179.629 11.888 179.893 10.64 180.421 9.584C180.965 8.528 181.725 7.72 182.701 7.16C183.677 6.6 184.805 6.32 186.085 6.32C187.685 6.32 188.917 6.744 189.781 7.592C190.645 8.424 191.093 9.616 191.125 11.168C191.125 12.224 191.061 13.008 190.933 13.52H183.133C183.197 14.976 183.541 16.112 184.165 16.928C184.789 17.728 185.677 18.128 186.829 18.128C187.453 18.128 188.093 18.024 188.749 17.816C189.421 17.608 189.949 17.36 190.333 17.072L190.933 18.392C190.501 18.856 189.797 19.288 188.821 19.688C187.861 20.072 186.885 20.264 185.893 20.264ZM187.765 12.08C187.797 11.632 187.813 11.288 187.813 11.048C187.813 8.92 187.101 7.856 185.677 7.856C184.893 7.856 184.285 8.168 183.853 8.792C183.421 9.416 183.181 10.512 183.133 12.08H187.765ZM194.505 8.936L192.969 8.504V6.848L196.953 6.344H197.025L197.625 6.824V7.76L197.601 8.336C198.161 7.808 198.889 7.352 199.785 6.968C200.681 6.584 201.585 6.392 202.497 6.392C203.473 6.392 204.233 6.576 204.777 6.944C205.337 7.296 205.737 7.856 205.977 8.624C206.217 9.392 206.337 10.432 206.337 11.744V18.368L207.801 18.56V20H201.609V18.56L202.905 18.368V11.744C202.905 10.912 202.849 10.264 202.737 9.8C202.625 9.32 202.417 8.976 202.113 8.768C201.825 8.544 201.409 8.432 200.865 8.432C199.953 8.432 198.977 8.824 197.937 9.608V18.344L199.377 18.56V20H193.113V18.56L194.505 18.344V8.936ZM212.281 18.032C212.409 18.224 212.697 18.408 213.145 18.584C213.609 18.744 214.073 18.824 214.537 18.824C215.289 18.824 215.849 18.672 216.217 18.368C216.601 18.048 216.793 17.632 216.793 17.12C216.793 16.592 216.561 16.168 216.097 15.848C215.633 15.512 214.849 15.104 213.745 14.624L213.073 14.336C211.969 13.872 211.145 13.312 210.601 12.656C210.057 12 209.785 11.152 209.785 10.112C209.785 9.392 210.001 8.752 210.433 8.192C210.865 7.616 211.473 7.168 212.257 6.848C213.041 6.528 213.945 6.368 214.969 6.368C215.721 6.368 216.361 6.416 216.889 6.512C217.433 6.608 218.001 6.736 218.593 6.896C218.913 7.008 219.153 7.072 219.313 7.088V10.232H217.417L216.865 8.408C216.769 8.248 216.553 8.104 216.217 7.976C215.881 7.848 215.497 7.784 215.065 7.784C214.409 7.784 213.881 7.928 213.481 8.216C213.097 8.488 212.905 8.872 212.905 9.368C212.905 9.816 213.041 10.192 213.313 10.496C213.585 10.784 213.881 11.008 214.201 11.168C214.521 11.328 215.113 11.592 215.977 11.96C216.841 12.328 217.553 12.68 218.113 13.016C218.689 13.352 219.161 13.792 219.529 14.336C219.913 14.864 220.105 15.512 220.105 16.28C220.105 17.464 219.641 18.424 218.713 19.16C217.785 19.896 216.449 20.264 214.705 20.264C213.889 20.264 213.153 20.192 212.497 20.048C211.857 19.904 211.113 19.712 210.265 19.472L209.737 19.304V16.136H211.729L212.281 18.032Z" fill="black"/>
</svg>
